<svg xmlns="http://www.w3.org/2000/svg" version="1.0" width="636.000000pt" height="623.000000pt" viewBox="0 0 636.000000 623.000000" preserveAspectRatio="xMidYMid meet">
<metadata fill="#af8260">
Created by potrace 1.16, written by Peter Selinger 2001-2019
</metadata>
<g transform="translate(0.000000,623.000000) scale(0.100000,-0.100000)" fill="#af8260" stroke="none">
<path d="M2408 5784 c-3 -3 -75 -7 -160 -8 -160 -3 -270 -20 -350 -56 -44 -19 -92 -64 -142 -133 -30 -42 -77 -70 -100 -61 -17 6 -16 32 3 114 13 55 13 61 2 79 -13 20 -103 -73 -151 -154 -29 -49 -35 -70 -38 -129 -4 -69 -5 -72 -50 -119 -49 -51 -82 -70 -106 -61 -18 7 -16 99 2 184 12 54 8 110 -8 110 -4 0 -13 -7 -20 -15 -7 -8 -18 -15 -25 -15 -7 0 -31 -21 -53 -46 -49 -55 -102 -191 -109 -281 -3 -34 -10 -60 -14 -57 -5 3 -9 -11 -9 -31 0 -22 6 -38 15 -41 23 -9 18 -39 -12 -74 -51 -61 -100 -62 -96 -2 4 67 -9 170 -24 189 -10 13 -16 15 -19 6 -3 -7 -12 -13 -19 -13 -27 0 -84 -79 -104 -145 -12 -37 -21 -75 -21 -85 0 -10 -7 -26 -16 -34 -14 -15 -14 -22 5 -86 12 -38 31 -79 43 -90 l22 -20 -54 -108 c-48 -93 -58 -107 -80 -107 -17 0 -25 6 -25 17 0 9 -13 41 -28 70 -15 29 -31 71 -37 93 -5 22 -16 49 -23 59 -14 18 -15 18 -36 -3 -12 -12 -26 -34 -32 -49 -15 -40 -39 -167 -40 -215 0 -33 -2 -38 -9 -22 -7 16 -9 13 -9 -18 -1 -52 33 -119 85 -167 l44 -41 -17 -65 c-10 -37 -28 -77 -41 -91 -28 -30 -65 -28 -67 4 -3 39 -135 211 -135 176 0 -6 -9 -13 -20 -16 -11 -3 -25 -18 -31 -34 -16 -39 -43 -257 -36 -285 13 -48 69 -107 120 -124 32 -11 52 -24 59 -40 6 -13 15 -21 19 -18 12 7 11 -89 -1 -121 -9 -23 -14 -26 -52 -23 -30 2 -43 8 -43 18 0 8 -12 31 -27 50 -14 19 -33 49 -41 66 -9 18 -28 46 -43 63 l-27 32 -18 -28 c-11 -15 -19 -37 -19 -48 0 -17 -2 -18 -11 -5 -14 21 -2 -75 21 -164 16 -61 26 -76 82 -134 35 -35 82 -73 106 -84 31 -14 42 -25 42 -41 0 -16 3 -18 9 -9 10 16 21 -64 21 -150 0 -47 -4 -59 -20 -68 -25 -13 -40 -5 -40 21 0 25 -191 220 -197 202 -3 -8 -14 -11 -28 -7 -29 7 -45 -18 -45 -71 0 -22 -4 -34 -10 -30 -6 3 -10 -4 -10 -18 0 -46 30 -124 69 -178 34 -47 51 -60 139 -103 55 -26 114 -62 130 -80 64 -66 72 -77 72 -94 0 -50 -64 -56 -133 -12 -48 30 -65 50 -24 29 30 -16 22 -9 -42 40 -30 22 -58 38 -63 35 -4 -3 -24 0 -43 7 -30 11 -37 10 -53 -4 -10 -9 -22 -14 -25 -10 -4 3 -7 -2 -7 -13 1 -30 35 -99 92 -181 44 -63 62 -80 104 -100 43 -20 154 -42 216 -43 10 0 31 -27 54 -68 20 -37 46 -77 58 -90 21 -23 21 -24 1 -38 -33 -25 -166 3 -251 52 -46 27 -80 30 -106 10 -28 -20 -22 -40 28 -95 63 -70 121 -97 280 -131 73 -16 142 -34 153 -40 12 -6 30 -28 41 -49 11 -22 31 -48 45 -59 31 -24 32 -38 4 -53 -32 -17 -110 -6 -166 24 -74 38 -127 50 -155 35 -13 -7 -25 -14 -26 -15 -2 -1 1 -18 8 -37 14 -43 101 -125 163 -154 32 -15 74 -23 153 -27 140 -8 160 -15 219 -75 66 -67 56 -77 -57 -62 -46 7 -104 12 -130 12 -48 0 -128 -27 -128 -44 0 -4 15 -22 34 -40 106 -97 353 -155 475 -111 l42 14 79 -67 c74 -62 78 -68 66 -87 -16 -24 -60 -25 -148 -5 -74 16 -148 7 -148 -20 0 -29 53 -66 127 -88 122 -37 188 -42 343 -27 74 7 76 6 134 -29 32 -20 62 -36 67 -36 15 0 10 -37 -7 -51 -10 -8 -56 -16 -121 -19 -83 -5 -108 -10 -118 -23 -7 -9 -17 -17 -24 -17 -14 0 -14 -12 2 -32 13 -16 111 -43 194 -54 59 -7 162 10 223 38 81 36 160 22 239 -40 l24 -19 -21 -21 c-12 -12 -40 -23 -69 -27 -104 -13 -173 -29 -170 -39 5 -18 89 -55 149 -66 87 -16 174 1 299 62 l107 51 118 -7 c66 -4 151 -14 189 -22 39 -8 80 -14 91 -14 25 0 46 -21 36 -36 -4 -6 -46 -29 -93 -51 -47 -22 -126 -68 -176 -102 -50 -34 -108 -68 -130 -75 -31 -11 -35 -15 -20 -21 57 -23 161 11 337 111 36 20 116 56 179 80 l115 44 80 -27 c44 -14 132 -53 195 -86 64 -33 143 -73 176 -90 60 -31 155 -47 191 -33 15 6 15 8 1 24 -9 9 -31 26 -49 36 -32 19 -33 19 -18 1 13 -17 11 -17 -20 3 -19 12 -34 26 -33 31 3 13 -49 54 -56 44 -3 -4 -55 17 -116 47 -122 61 -139 83 -76 99 79 20 151 30 263 37 l116 6 95 -46 c121 -60 224 -82 306 -68 79 14 156 51 156 76 0 17 -10 19 -80 23 -118 5 -139 13 -143 50 -2 24 3 35 25 50 65 45 113 47 216 8 90 -34 176 -40 272 -20 102 21 127 33 139 68 8 22 6 31 -8 45 -11 10 -20 13 -22 7 -3 -7 -39 -9 -102 -7 -98 4 -138 15 -126 33 3 5 1 16 -6 24 -9 11 1 20 54 50 59 33 69 35 118 29 84 -10 230 -7 279 6 128 34 169 53 198 96 19 27 21 37 11 49 -8 9 -17 11 -28 6 -15 -8 -72 -18 -213 -38 -35 -5 -37 -3 -41 29 -5 29 0 37 40 73 90 79 85 77 132 60 129 -45 367 15 478 121 44 43 45 44 27 64 -10 11 -23 16 -29 12 -6 -3 -34 -5 -63 -3 -29 1 -93 -3 -144 -9 -107 -14 -122 -6 -86 44 49 71 76 82 217 90 93 5 125 11 165 31 99 48 175 135 175 199 0 27 -18 45 -29 29 -3 -6 -22 -14 -41 -18 -19 -4 -62 -21 -95 -38 -46 -23 -74 -30 -120 -31 -53 -1 -60 1 -63 20 -2 11 15 48 38 81 46 69 63 78 220 109 162 31 242 77 296 170 23 39 25 49 15 71 -11 24 -13 24 -30 9 -10 -9 -23 -16 -29 -16 -7 0 -38 -14 -69 -30 -60 -31 -202 -66 -228 -56 -24 9 -17 35 28 121 l42 80 89 13 c49 7 114 24 146 38 49 22 63 35 108 102 84 126 113 212 77 226 -8 3 -15 1 -15 -4 0 -6 -8 -10 -17 -10 -21 0 -60 -23 -169 -98 -63 -43 -84 -52 -112 -50 -33 3 -35 5 -39 45 -4 38 0 46 35 81 22 22 81 60 135 86 104 51 141 85 184 169 22 42 27 69 30 142 2 50 0 96 -5 103 -16 23 -95 -33 -196 -139 -53 -55 -102 -99 -109 -96 -12 4 -13 16 -9 184 l2 73 48 24 c73 37 158 134 178 203 28 96 42 195 31 226 -5 15 -11 27 -14 27 -11 0 -67 -70 -95 -120 -42 -74 -82 -110 -123 -110 l-32 0 -7 81 c-8 92 -3 102 52 120 46 14 77 42 110 98 20 35 27 61 30 125 5 90 -10 187 -33 222 l-15 23 -35 -20 c-21 -13 -57 -54 -91 -105 -44 -67 -61 -84 -80 -84 -15 0 -24 6 -24 16 0 8 -5 25 -12 37 -7 12 -20 50 -29 85 l-17 63 36 37 c54 57 73 110 73 201 0 44 -7 109 -16 145 -14 64 -40 126 -51 126 -16 0 -53 -57 -63 -97 -16 -60 -43 -112 -75 -142 -27 -26 -56 -23 -54 6 1 10 -17 57 -40 105 -23 47 -42 93 -42 102 0 8 12 46 26 83 20 54 25 79 21 123 -7 68 -37 158 -68 205 -28 41 -36 45 -73 38 -36 -7 -46 -36 -46 -128 0 -68 -2 -76 -24 -90 -19 -13 -29 -14 -46 -5 -11 6 -18 15 -15 21 4 5 -5 23 -19 40 -20 23 -24 37 -19 57 16 62 7 166 -20 252 -47 143 -92 203 -154 206 -27 1 -36 -4 -43 -22 -5 -12 -14 -24 -20 -26 -16 -5 18 -128 37 -135 31 -12 -2 -93 -38 -93 -20 0 -49 21 -43 31 3 6 -14 32 -39 57 -44 45 -46 49 -43 100 4 64 -28 137 -97 224 l-46 56 -36 -16 c-36 -16 -37 -18 -32 -60 3 -25 12 -48 22 -56 14 -10 15 -17 7 -33 -6 -11 -17 -23 -24 -26 -21 -7 -58 11 -58 29 0 16 -21 46 -79 115 -34 40 -82 75 -66 48 6 -9 3 -10 -11 -6 -97 31 -167 47 -249 58 -101 12 -263 8 -305 -9 -24 -9 -23 -10 35 -47 33 -22 97 -76 143 -121 90 -91 178 -143 278 -165 50 -11 63 -10 130 9 72 22 76 22 105 5 35 -21 36 -33 7 -60 -28 -25 -121 -73 -144 -73 -34 0 -4 -26 52 -44 74 -23 182 -24 247 -1 49 16 49 16 87 -9 33 -22 80 -66 136 -128 12 -13 13 -21 5 -37 -15 -27 -36 -37 -91 -45 -76 -11 -130 -28 -130 -40 0 -20 23 -43 65 -65 50 -27 121 -27 235 -2 l85 19 58 -56 c31 -31 60 -65 63 -74 3 -10 10 -16 15 -13 16 11 10 -43 -8 -60 -25 -26 -55 -34 -132 -36 -85 -2 -88 -11 -31 -73 47 -51 89 -65 220 -73 95 -6 129 -19 150 -57 7 -14 17 -26 22 -26 4 0 8 -12 8 -26 0 -57 -91 -114 -182 -114 -42 0 -47 -12 -22 -48 21 -31 57 -47 155 -72 121 -31 157 -54 185 -117 13 -29 29 -53 35 -53 16 0 1 -42 -23 -62 -11 -10 -32 -18 -47 -18 -29 0 -74 27 -66 40 3 4 -2 13 -10 20 -9 7 -15 8 -15 2 0 -5 -9 -8 -20 -5 -31 8 -70 -5 -70 -25 1 -31 40 -105 85 -157 30 -36 64 -62 108 -83 71 -33 137 -86 137 -108 0 -8 7 -17 15 -20 18 -7 19 -37 4 -67 -25 -46 -74 -52 -90 -10 -10 26 -26 43 -63 64 -14 8 -17 8 -11 0 5 -8 -2 -10 -22 -5 -38 9 -35 9 -61 0 -20 -7 -22 -12 -16 -39 8 -41 48 -120 86 -173 17 -24 56 -57 93 -79 51 -30 65 -43 71 -68 4 -18 13 -37 22 -43 17 -13 3 -48 -24 -58 -22 -8 -90 25 -86 42 1 8 -12 31 -29 53 l-31 39 -19 -24 c-10 -13 -19 -34 -19 -45 0 -12 -4 -21 -10 -21 -14 0 -12 -49 4 -105 17 -55 66 -131 125 -194 61 -66 55 -134 -14 -147 -40 -7 -88 17 -79 39 3 8 -2 20 -11 27 -8 7 -15 18 -15 24 0 22 -21 86 -28 86 -11 0 -34 -80 -39 -142 -4 -35 -10 -55 -16 -51 -23 14 1 -86 31 -128 42 -60 107 -129 122 -129 29 0 -32 -137 -66 -151 -30 -11 -53 -2 -53 19 0 9 -9 42 -20 72 -11 30 -20 67 -21 81 0 14 -6 33 -13 44 -13 16 -16 13 -40 -35 -15 -30 -30 -76 -33 -103 -5 -34 -10 -45 -16 -35 -6 8 -8 -4 -5 -38 7 -63 51 -174 83 -209 13 -14 24 -35 24 -45 0 -21 -61 -94 -91 -110 -22 -12 -49 -3 -49 16 0 8 -9 31 -20 51 -14 27 -20 57 -20 104 0 36 -3 69 -7 73 -12 11 -82 -74 -93 -113 -5 -20 -10 -57 -10 -83 0 -26 -4 -50 -10 -53 -24 -15 5 -191 34 -207 20 -11 13 -42 -17 -75 -22 -25 -80 -32 -93 -11 -4 6 -10 60 -14 119 -6 109 -14 137 -31 108 -4 -9 -22 -22 -39 -29 -37 -16 -74 -87 -95 -188 -16 -80 -20 -166 -6 -144 5 9 11 -4 15 -38 9 -65 -13 -108 -66 -128 -91 -35 -113 21 -53 134 39 73 42 86 20 104 -9 7 -15 8 -15 2 0 -6 -28 -26 -63 -45 -76 -43 -89 -57 -122 -129 -19 -41 -28 -84 -34 -154 -10 -116 -25 -137 -95 -132 l-41 3 -3 47 c-2 36 4 60 28 108 23 46 29 65 20 74 -8 8 -13 8 -18 -1 -4 -6 -21 -15 -37 -18 -89 -21 -160 -97 -191 -204 -41 -143 -64 -177 -115 -169 -37 5 -35 48 6 126 23 42 33 74 29 85 -6 16 -9 16 -23 4 -9 -8 -41 -22 -71 -32 -48 -16 -71 -34 -179 -143 -77 -77 -140 -132 -165 -143 -43 -18 -86 -25 -356 -61 -241 -31 -252 -31 -353 -14 -50 8 -139 20 -197 26 -58 6 -136 15 -175 21 -72 12 -150 43 -141 58 3 4 -48 63 -113 131 -85 88 -123 121 -135 117 -8 -3 -35 1 -58 9 -25 9 -57 13 -75 9 l-33 -6 31 -60 c18 -34 38 -63 45 -66 21 -8 17 -41 -7 -53 -51 -28 -72 -1 -106 135 -8 33 -28 86 -45 117 -31 58 -93 118 -100 96 -3 -8 -10 -8 -26 1 -26 14 -97 19 -109 8 -8 -9 45 -119 64 -130 38 -23 -8 -77 -66 -77 -22 0 -43 5 -47 11 -3 6 -10 54 -14 107 -9 107 -36 196 -75 248 -24 32 -76 71 -61 45 11 -17 -10 -13 -49 10 -39 24 -85 20 -85 -7 0 -20 62 -134 72 -134 19 0 6 -41 -18 -56 -31 -21 -99 -9 -99 17 0 9 -6 24 -14 33 -11 13 -12 43 -7 147 7 118 5 136 -14 195 -24 71 -65 128 -83 117 -7 -4 -22 -6 -34 -4 -22 2 -23 0 -23 -76 0 -101 -22 -143 -74 -143 -63 0 -75 62 -43 213 9 43 17 103 17 133 0 62 -31 159 -59 188 -19 18 -20 18 -38 1 -13 -13 -18 -34 -19 -74 -1 -94 -58 -174 -109 -154 -9 3 -14 12 -11 20 3 7 -10 31 -29 52 -19 21 -35 46 -35 55 0 9 13 42 29 74 71 142 82 240 38 335 -14 31 -29 57 -32 57 -10 0 -35 -68 -35 -97 -1 -40 -34 -109 -63 -127 -26 -18 -61 -11 -53 9 2 7 -1 21 -9 31 -7 11 -19 39 -28 64 l-15 45 49 53 c85 93 104 134 103 227 0 59 -5 92 -21 125 l-20 45 -17 -57 c-20 -67 -44 -101 -85 -118 -38 -15 -80 -6 -80 18 -1 9 -4 36 -7 58 -5 38 -2 46 30 81 92 102 151 261 126 338 -6 19 -15 35 -18 35 -4 -1 -25 -24 -46 -52 -63 -81 -162 -113 -152 -49 3 14 7 44 11 67 5 36 11 43 48 59 103 46 231 248 203 321 -6 16 -8 16 -24 0 -10 -9 -26 -16 -34 -16 -9 0 -41 -20 -71 -45 -68 -55 -102 -59 -111 -14 -3 17 -6 49 -6 71 0 50 31 82 122 125 96 46 188 157 212 255 7 30 -9 47 -27 29 -6 -6 -17 -11 -24 -11 -7 0 -34 -13 -60 -30 -45 -29 -87 -37 -109 -22 -21 14 -16 104 9 147 26 47 69 71 165 92 117 27 182 71 182 125 0 30 -14 38 -24 13 -3 -8 -18 -15 -33 -15 -34 0 -123 40 -105 47 9 3 5 14 -13 35 -33 39 -32 73 4 109 25 25 38 29 88 31 32 0 63 2 68 3 6 1 36 5 67 9 68 9 111 36 152 94 23 33 27 45 18 54 -9 9 -15 9 -24 0 -13 -13 -96 -15 -137 -3 -14 4 -26 15 -27 26 -2 11 -6 32 -10 47 -5 24 2 36 55 91 l61 63 87 -18 c150 -30 218 -22 281 35 23 22 29 61 11 73 -6 3 -14 2 -18 -4 -8 -13 -139 3 -155 19 -5 5 -11 26 -13 48 -4 36 1 45 39 86 24 26 60 55 80 66 34 17 39 18 80 3 57 -21 169 -21 240 0 70 21 89 40 64 64 -12 12 -19 14 -24 5 -8 -13 -97 25 -97 42 -1 6 -7 21 -14 34 -12 21 -11 26 5 38 23 17 20 17 89 -7 73 -25 101 -25 178 1 92 31 165 79 248 165 41 41 100 91 132 111 40 24 57 40 53 50 -3 8 -6 17 -6 19 0 6 -16 5 -22 -2z" fill="#af8260"/>
<path d="M3030 5433 c-67 -7 -77 -12 -93 -50 -9 -21 -29 -69 -45 -108 -16 -38 -46 -110 -67 -160 -35 -83 -60 -125 -68 -114 -2 2 -29 43 -60 90 -61 93 -116 149 -147 149 -25 0 -27 -5 -39 -79 -6 -35 -16 -73 -24 -85 -7 -11 -29 -59 -47 -106 -19 -47 -37 -87 -42 -88 -4 -2 -6 -7 -3 -12 3 -4 -1 -23 -9 -41 -7 -19 -16 -42 -19 -51 -5 -16 -13 -15 -89 11 -46 16 -161 63 -256 105 l-174 77 -46 -38 c-139 -112 -275 -264 -385 -429 -76 -115 -162 -273 -153 -281 8 -8 6 -11 58 87 120 230 320 478 483 601 l55 41 72 -30 c40 -17 123 -53 183 -80 61 -27 140 -59 176 -71 l66 -22 -18 -77 c-10 -42 -18 -87 -19 -99 0 -25 3 -23 -205 -108 -71 -29 -182 -74 -245 -100 -63 -26 -236 -96 -385 -157 -148 -60 -275 -114 -281 -119 -34 -28 -123 -379 -143 -561 -13 -112 -15 -278 -3 -278 4 0 5 30 4 66 -9 168 49 486 129 704 20 56 24 61 73 79 28 11 116 46 196 79 529 217 864 352 865 349 0 -1 8 -24 17 -52 l17 -50 -38 -40 c-21 -22 -130 -139 -242 -260 l-204 -220 -85 -7 c-47 -3 -184 -7 -306 -8 -251 -3 -245 -1 -288 -85 -33 -65 -84 -200 -92 -243 -5 -28 -2 -38 22 -63 l28 -29 185 5 c522 13 951 16 969 6 18 -9 19 -28 26 -296 4 -157 10 -297 12 -311 9 -47 -5 -65 -75 -96 -36 -16 -75 -33 -86 -38 -11 -5 -36 -15 -55 -23 -19 -8 -51 -29 -70 -46 -19 -18 -46 -38 -60 -46 -53 -30 -155 -154 -197 -239 -41 -85 -80 -189 -87 -233 -5 -35 -3 -45 15 -61 19 -19 36 -19 362 -16 188 2 630 9 983 15 701 13 653 15 727 -44 25 -19 40 -22 125 -22 l96 0 31 -43 30 -42 180 7 c200 7 201 7 251 80 41 62 61 71 152 76 93 5 116 18 207 122 l56 64 0 113 c0 62 -2 206 -4 320 -5 262 0 253 -135 244 -71 -4 -103 -11 -134 -28 l-40 -23 -23 27 c-21 25 -31 28 -97 29 -72 2 -138 -7 -148 -20 -3 -4 -26 -24 -52 -45 -82 -66 -87 -79 -78 -241 7 -127 6 -142 -10 -159 -28 -29 -63 -14 -112 52 -79 105 -186 138 -284 86 -27 -14 -59 -31 -70 -37 -12 -6 -27 -25 -33 -42 -6 -18 -22 -42 -36 -55 -24 -23 -25 -23 -45 -5 -11 10 -20 25 -20 34 0 9 -7 27 -16 39 -19 27 -87 30 -123 6 -22 -16 -26 -15 -67 5 -47 24 -92 22 -115 -5 -15 -18 -48 -18 -68 0 -40 34 -141 21 -141 -20 0 -8 -9 -23 -20 -34 -17 -17 -33 -20 -104 -20 -55 0 -87 4 -93 13 -13 16 -23 264 -24 636 -2 269 0 295 16 307 13 9 79 13 254 13 433 1 734 12 758 27 12 8 40 45 62 83 23 38 52 82 65 98 50 60 55 81 49 204 -7 146 -9 149 -117 149 -77 0 -84 -2 -136 -37 -30 -20 -73 -51 -95 -69 -38 -30 -55 -38 -82 -35 -8 1 -12 60 -15 204 -2 143 -7 208 -15 219 -7 8 -44 27 -82 43 l-70 28 -37 -22 c-35 -21 -39 -21 -76 -7 -53 22 -61 19 -15 -5 21 -11 35 -23 33 -28 -3 -4 -24 -21 -48 -36 -93 -62 -98 -70 -98 -156 0 -93 -6 -99 -94 -92 l-61 5 -32 -55 c-18 -30 -33 -59 -33 -65 0 -37 -124 -68 -150 -37 -8 10 -14 77 -17 197 -3 101 -9 190 -14 199 -6 13 -2 21 16 33 35 23 73 94 82 153 l8 50 179 -74 c98 -40 180 -72 183 -70 2 3 -15 12 -38 21 -23 9 -106 44 -184 77 l-143 60 -16 87 c-20 106 -20 112 -1 112 25 0 991 366 1211 459 16 7 38 0 94 -30 41 -21 75 -37 77 -35 2 2 -33 23 -79 46 l-84 43 -64 -26 c-36 -14 -167 -66 -291 -116 -125 -49 -307 -120 -405 -156 -99 -37 -240 -89 -314 -117 -74 -28 -140 -53 -146 -55 -6 -2 -19 17 -29 43 -15 40 -16 49 -4 52 8 3 120 109 249 236 129 127 257 252 284 277 l48 46 87 -14 c98 -16 271 -60 380 -97 94 -33 105 -27 14 6 -147 55 -459 128 -492 116 -5 -1 -134 -124 -286 -273 -153 -148 -283 -271 -290 -273 -7 -2 -24 20 -39 48 -26 50 -26 51 -8 78 10 15 52 108 92 207 40 99 78 186 85 192 12 15 204 32 278 25 30 -2 47 0 47 7 0 11 -171 13 -260 4z m-546 -1113 c6 0 17 -4 25 -9 17 -11 23 -3 -91 -105 l-78 -68 0 -67 c0 -52 -6 -79 -26 -119 l-25 -51 -195 -3 c-107 -2 -194 -1 -194 2 0 5 63 73 353 382 l119 128 50 -45 c28 -25 55 -45 62 -45z m1026 -50 c12 -8 16 -50 20 -242 6 -222 5 -234 -14 -255 -24 -28 -37 -29 -66 -5 -21 17 -22 26 -27 250 -4 176 -2 236 7 247 14 17 57 20 80 5z m-802 -23 c11 -13 14 -97 33 -1162 7 -386 15 -625 21 -632 8 -9 52 -13 157 -13 156 0 191 9 191 50 0 11 11 27 24 35 32 21 62 6 82 -41 9 -21 21 -34 32 -34 22 0 42 19 42 40 0 9 9 25 20 35 29 26 65 13 87 -32 24 -49 40 -52 58 -11 30 72 77 77 111 13 20 -39 21 -40 80 -42 81 -2 91 3 115 48 27 55 98 99 158 99 56 0 121 -37 151 -85 36 -58 47 -65 105 -65 56 0 75 -14 75 -56 0 -38 -30 -54 -98 -54 -59 0 -71 -4 -118 -36 -92 -64 -175 -55 -257 28 l-40 40 -126 -6 c-69 -3 -318 -8 -553 -12 -321 -5 -431 -4 -442 5 -11 9 -15 89 -20 439 -4 235 -11 652 -17 926 -11 569 -15 536 71 536 26 0 52 -6 58 -13z m1263 -295 c0 -4 2 -40 3 -80 3 -96 -5 -104 -125 -110 -76 -4 -93 -2 -109 13 -23 20 -26 45 -8 63 7 7 39 12 72 12 69 0 96 17 96 63 0 41 26 70 51 56 11 -5 19 -13 20 -17z m-783 -4 c8 -8 12 -45 12 -100 0 -74 -3 -89 -18 -97 -10 -5 -82 -11 -160 -12 -125 -2 -145 0 -162 16 -25 22 -25 26 0 53 19 20 31 22 121 22 124 0 139 7 139 63 0 45 13 67 40 67 9 0 21 -5 28 -12z m-678 -158 c27 -14 25 -38 -2 -50 -14 -6 -253 -14 -583 -18 -583 -9 -605 -7 -605 32 0 33 27 36 461 45 473 10 699 7 729 -9z m2028 -908 c9 -12 12 -86 12 -293 0 -152 3 -290 6 -307 5 -22 1 -35 -15 -51 -19 -19 -32 -21 -144 -21 -108 0 -126 2 -141 19 -17 19 -13 51 7 51 6 0 25 -5 43 -12 41 -14 83 2 121 46 l26 31 -7 267 -7 266 23 16 c25 18 56 13 76 -12z m294 -9 c21 -24 37 -536 18 -559 -15 -17 -84 -19 -98 -1 -17 20 -19 542 -2 562 17 20 63 19 82 -2z m-2493 -234 c14 -42 15 -276 0 -284 -5 -4 -72 -9 -148 -10 -183 -5 -187 -3 -137 92 40 77 97 136 185 195 69 46 86 47 100 7z" fill="#af8260"/>
<path d="M3861 2485 c-17 -20 -31 -40 -31 -45 0 -15 67 -80 83 -80 29 0 64 21 81 51 15 26 15 31 1 58 -31 62 -88 68 -134 16z" fill="#af8260"/>
<path d="M5411 3845 c0 -5 9 -59 20 -120 41 -226 36 -545 -12 -789 -169 -859 -847 -1543 -1729 -1745 -515 -118 -1084 -48 -1555 193 -117 59 -124 62 -110 48 18 -19 219 -118 319 -156 260 -101 486 -146 776 -153 335 -9 597 34 905 147 132 48 340 158 475 251 459 314 789 790 915 1323 61 255 76 559 41 797 -16 104 -43 230 -45 204z" fill="#af8260"/>
<path d="M2148 3465 c-3 -6 -47 -111 -98 -235 -151 -365 -408 -987 -452 -1093 -22 -54 -38 -101 -34 -104 3 -4 7 -4 9 -2 2 2 52 123 111 269 135 328 231 561 256 620 80 184 220 535 217 544 -2 6 -6 6 -9 1z" fill="#af8260"/>
<path d="M2015 2978 c-55 -30 -69 -81 -32 -123 33 -39 79 -37 122 5 l34 33 22 -27 c44 -56 104 -54 135 5 15 30 15 35 0 66 -29 61 -98 66 -137 11 l-21 -30 -32 30 c-38 36 -64 45 -91 30z" fill="#af8260"/>
<path d="M3311 2854 c-19 -16 -31 -35 -31 -50 0 -35 42 -74 79 -74 29 0 30 -1 20 -27 -21 -55 33 -112 88 -92 31 11 56 53 48 79 -10 30 -64 61 -94 53 -21 -5 -23 -3 -16 13 21 49 17 70 -15 97 -39 33 -41 33 -79 1z" fill="#af8260"/>
<path d="M3202 2717 c-30 -32 -28 -71 5 -97 67 -53 152 40 90 98 -30 28 -68 28 -95 -1z" fill="#af8260"/>
<path d="M2628 1561 c-50 -92 -62 -121 -51 -126 26 -9 30 -6 25 23 -4 32 19 58 43 48 19 -7 19 -45 0 -66 -14 -16 -11 -18 41 -29 73 -14 79 -14 66 2 -7 8 -5 38 5 97 8 47 16 86 17 88 2 1 11 -39 21 -90 20 -112 25 -131 32 -125 2 3 15 63 28 133 13 71 29 130 34 132 21 7 11 22 -15 22 -21 0 -25 -4 -20 -17 8 -19 -12 -153 -24 -166 -4 -5 -10 16 -14 45 -4 29 -12 72 -18 96 -9 35 -14 42 -35 42 -21 0 -23 -2 -10 -14 12 -13 12 -28 -5 -113 -22 -119 -24 -123 -42 -123 -24 0 -26 12 -15 135 5 64 8 119 6 122 -2 2 -34 -50 -69 -116z" fill="#af8260"/>
<path d="M3583 1665 c-46 -32 -76 -166 -50 -228 41 -98 147 12 147 153 0 77 -44 112 -97 75z m65 -90 c-7 -111 -52 -184 -85 -139 -29 38 3 200 44 223 34 18 46 -7 41 -84z" fill="#af8260"/>
<path d="M3386 1663 c-13 -3 -15 -7 -7 -12 9 -6 8 -35 -5 -122 -9 -63 -21 -122 -26 -132 -12 -24 -6 -29 23 -22 22 5 24 11 21 51 -6 74 3 94 42 94 l34 0 -10 -47 c-5 -27 -13 -56 -18 -65 -14 -25 -13 -25 20 -20 16 2 27 8 24 14 -10 15 17 221 32 246 14 21 13 22 -22 22 -31 0 -35 -2 -24 -15 15 -18 4 -105 -13 -105 -7 0 -22 -3 -35 -6 -22 -6 -22 -5 -16 37 3 24 13 54 20 67 13 20 13 22 -3 21 -10 -1 -27 -4 -37 -6z" fill="#af8260"/>
<path d="M3047 1635 c7 -36 -28 -227 -45 -247 -14 -17 -12 -18 23 -18 27 0 36 3 29 10 -7 7 -8 28 -3 58 4 26 8 53 8 60 2 33 20 -4 31 -63 11 -59 15 -65 37 -65 21 0 23 2 10 15 -8 7 -18 35 -21 60 -6 36 -3 55 14 91 35 72 14 124 -50 124 -34 0 -37 -2 -33 -25z" fill="#af8260"/>
</g>
</svg>