<svg xmlns="http://www.w3.org/2000/svg" version="1.0" width="636.000000pt" height="623.000000pt" viewBox="0 0 636.000000 623.000000" preserveAspectRatio="xMidYMid meet">

<g transform="translate(0.000000,623.000000) scale(0.100000,-0.100000)" fill="#803d3b" stroke="none">
<path d="M2407 5784 c-3 -3 -74 -7 -159 -8 -160 -3 -270 -20 -350 -56 -44 -19 -92 -64 -142 -133 -30 -41 -77 -70 -100 -61 -16 6 -16 34 -1 126 13 82 2 87 -58 26 -28 -30 -68 -80 -87 -113 -29 -49 -35 -70 -38 -129 -4 -69 -5 -72 -50 -119 -49 -51 -82 -70 -106 -61 -23 9 -29 76 -12 135 17 57 21 145 7 153 -5 3 -14 -1 -21 -9 -7 -8 -18 -15 -25 -15 -7 0 -31 -21 -53 -46 -49 -55 -102 -191 -109 -281 -3 -34 -10 -60 -14 -57 -15 9 -10 -54 6 -70 8 -8 15 -21 15 -30 0 -21 -49 -76 -77 -87 -42 -16 -49 -4 -51 89 -3 89 -16 152 -33 152 -5 0 -9 -4 -9 -10 0 -5 -6 -10 -14 -10 -30 0 -85 -78 -106 -152 -12 -40 -26 -90 -32 -110 -13 -45 3 -111 40 -166 l24 -36 -53 -105 c-47 -92 -57 -106 -79 -106 -16 0 -25 6 -25 15 0 9 -13 36 -27 61 -15 26 -32 68 -38 95 -6 27 -18 56 -26 66 -15 15 -17 15 -35 -3 -11 -11 -24 -32 -30 -47 -15 -40 -39 -167 -40 -215 0 -34 -2 -38 -10 -22 -7 14 -8 7 -4 -28 6 -61 27 -100 81 -154 l44 -43 -17 -66 c-10 -37 -28 -77 -41 -91 -26 -28 -64 -28 -68 0 -4 26 -64 123 -95 153 -22 21 -30 23 -53 15 -35 -14 -45 -43 -63 -184 -14 -106 -14 -122 -1 -151 26 -52 66 -94 106 -107 43 -13 72 -36 72 -56 0 -8 4 -11 10 -8 13 8 13 -85 0 -120 -9 -23 -14 -26 -52 -23 -32 2 -43 7 -43 20 0 9 -10 27 -21 40 -12 13 -29 37 -37 53 -8 17 -30 50 -47 74 l-32 44 -19 -29 c-10 -16 -19 -38 -19 -49 0 -17 -2 -18 -11 -5 -13 20 -2 -63 21 -153 25 -96 92 -173 205 -233 11 -6 23 -22 26 -35 4 -13 8 -17 9 -9 5 29 19 -76 19 -142 1 -57 -2 -69 -18 -78 -28 -14 -29 -14 -45 23 -7 19 -49 70 -92 114 -73 74 -82 80 -117 79 -44 -1 -57 -16 -57 -69 0 -26 -4 -36 -12 -31 -18 11 -3 -67 24 -128 39 -83 72 -115 179 -168 113 -57 199 -134 199 -178 0 -50 -64 -56 -133 -12 -26 16 -47 32 -47 35 0 4 4 3 10 0 6 -3 10 -4 10 -1 0 9 -93 71 -102 68 -6 -1 -25 3 -44 10 -28 10 -36 9 -52 -5 -10 -9 -22 -14 -25 -10 -20 19 -2 -35 33 -104 81 -157 151 -208 305 -220 38 -3 76 -10 83 -16 8 -6 27 -38 44 -71 17 -34 40 -71 52 -84 21 -23 21 -24 1 -38 -33 -25 -166 3 -251 52 -46 27 -80 30 -108 9 -24 -18 -15 -43 35 -99 47 -54 127 -90 264 -119 161 -34 168 -37 209 -102 20 -31 43 -58 51 -61 22 -9 18 -31 -6 -45 -32 -17 -110 -6 -166 24 -74 38 -127 50 -155 35 -13 -7 -25 -14 -26 -15 -2 -1 5 -21 16 -45 21 -48 80 -102 152 -138 35 -18 71 -25 160 -30 138 -9 173 -22 224 -84 52 -64 42 -73 -66 -58 -46 7 -104 12 -130 12 -45 0 -128 -27 -128 -42 0 -3 18 -22 40 -40 76 -66 193 -109 330 -123 51 -5 78 -3 123 13 l57 19 80 -70 c75 -66 79 -72 66 -91 -16 -25 -59 -26 -148 -6 -63 14 -148 6 -148 -14 0 -26 60 -67 136 -93 73 -25 92 -27 254 -27 138 -1 180 -4 200 -16 14 -9 40 -24 57 -35 18 -11 33 -27 33 -36 0 -32 -31 -43 -136 -49 -89 -5 -106 -9 -124 -27 -37 -41 -26 -50 89 -78 100 -24 223 -17 308 19 35 14 77 26 95 26 38 0 100 -28 142 -63 l28 -25 -20 -20 c-12 -12 -40 -23 -69 -27 -114 -14 -171 -28 -166 -41 8 -22 106 -57 174 -62 89 -6 155 10 279 68 l105 49 125 -9 c137 -11 278 -37 297 -54 19 -17 4 -30 -88 -73 -47 -22 -126 -68 -176 -102 -50 -34 -108 -68 -130 -75 l-38 -14 28 -7 c49 -13 118 6 216 58 157 83 241 123 325 153 l78 27 83 -27 c45 -14 131 -52 191 -83 230 -119 240 -123 301 -129 43 -5 62 -3 68 6 9 15 -31 49 -55 47 -14 -1 -70 30 -70 40 0 2 10 -2 23 -8 27 -14 15 -2 -35 35 -21 15 -38 23 -38 18 0 -4 -51 17 -114 47 -73 36 -112 60 -109 68 3 7 -1 13 -8 13 -8 0 -9 3 -3 8 17 16 159 42 287 52 l129 10 102 -50 c57 -27 127 -55 156 -61 82 -18 179 -7 247 27 78 39 76 56 -7 60 -121 5 -150 13 -161 40 -14 38 -12 42 32 69 63 40 121 43 199 10 86 -37 197 -44 307 -20 104 23 113 29 113 70 0 34 -17 56 -29 38 -7 -11 -205 -2 -217 10 -4 4 -9 13 -10 20 -1 7 -3 18 -5 26 -3 8 17 27 45 45 l50 31 170 0 c163 0 175 1 256 29 89 31 140 69 140 105 0 19 -4 20 -47 15 -27 -3 -73 -10 -103 -16 -124 -24 -126 -24 -134 14 -7 31 -3 36 60 94 l66 60 57 -19 c125 -42 359 18 470 122 17 16 31 36 31 44 0 18 -26 41 -34 29 -3 -5 -28 -7 -56 -4 -27 2 -93 -1 -146 -8 -105 -13 -123 -7 -102 34 38 75 84 96 233 106 95 6 131 13 165 30 64 33 137 105 156 156 16 42 16 46 1 62 -10 9 -17 11 -17 5 0 -6 -17 -14 -37 -18 -20 -3 -64 -20 -97 -37 -37 -19 -82 -32 -118 -35 -54 -5 -58 -4 -67 18 -7 19 -4 31 14 54 12 17 29 44 38 61 20 39 39 46 206 84 78 17 151 40 176 54 62 37 135 121 135 156 0 34 -12 44 -37 32 -107 -54 -161 -75 -226 -88 -43 -9 -84 -13 -92 -10 -25 9 -17 47 29 131 l43 80 78 7 c137 13 193 41 254 127 45 65 101 177 101 202 0 9 -7 22 -15 29 -10 9 -15 9 -15 1 0 -6 -8 -11 -17 -11 -21 0 -60 -23 -169 -98 -64 -44 -84 -52 -113 -50 -35 3 -36 4 -39 49 -3 43 0 50 34 83 20 19 80 57 132 82 111 54 142 84 185 174 25 51 32 81 35 143 3 49 0 82 -7 91 -20 24 -89 -24 -195 -135 -53 -55 -102 -99 -109 -97 -16 6 -20 63 -12 174 l7 92 39 17 c21 10 67 48 102 84 70 72 85 106 108 249 9 55 9 79 0 98 l-11 25 -30 -33 c-17 -18 -45 -58 -62 -88 -42 -75 -82 -110 -123 -110 l-33 0 -7 74 c-9 91 -3 111 38 126 60 22 72 31 105 75 27 36 36 58 43 117 10 83 -2 202 -26 248 l-15 29 -35 -20 c-21 -13 -57 -54 -91 -105 -44 -67 -61 -84 -80 -84 -15 0 -24 6 -24 15 0 9 -6 26 -14 38 -8 12 -22 50 -31 84 l-18 63 36 39 c64 71 72 95 71 206 0 103 -19 196 -49 241 l-16 24 -23 -25 c-13 -14 -29 -46 -35 -72 -16 -60 -43 -112 -75 -142 -28 -26 -56 -23 -56 7 0 10 -20 60 -45 111 l-46 93 21 55 c37 98 40 132 23 208 -18 81 -54 157 -83 178 -28 20 -69 10 -81 -20 -5 -13 -9 -58 -9 -98 0 -68 -2 -76 -24 -90 -19 -13 -29 -14 -46 -5 -11 6 -18 15 -15 20 3 4 -6 21 -19 37 -22 26 -23 34 -19 123 5 84 2 105 -21 180 -29 92 -68 170 -98 197 -11 10 -35 18 -54 19 -30 1 -37 -4 -51 -33 -14 -30 -14 -41 -3 -90 8 -30 20 -57 27 -60 32 -12 -3 -93 -40 -93 -15 0 -57 29 -43 30 5 0 -12 22 -38 50 -45 48 -46 51 -46 113 0 49 -6 75 -25 111 -28 53 -104 156 -115 156 -4 0 -22 -5 -39 -11 -32 -11 -33 -12 -26 -57 4 -26 14 -51 22 -57 12 -9 13 -16 5 -32 -6 -11 -17 -23 -24 -26 -16 -6 -58 9 -58 22 0 13 -75 124 -99 145 -11 10 -32 19 -48 21 -15 2 -58 12 -95 23 -135 41 -392 54 -467 25 -23 -9 -22 -10 25 -38 27 -15 92 -70 145 -121 75 -73 112 -101 172 -130 94 -44 173 -54 243 -30 26 9 57 16 68 16 22 -1 66 -32 66 -47 0 -23 -95 -84 -160 -103 -24 -7 -22 -9 24 -30 71 -32 184 -38 259 -13 l58 20 42 -27 c23 -15 59 -47 80 -71 21 -24 45 -51 53 -61 12 -13 13 -21 5 -37 -15 -27 -36 -37 -91 -45 -76 -11 -130 -28 -130 -41 0 -28 100 -85 150 -85 17 0 78 9 135 21 l104 21 54 -54 c30 -30 58 -64 61 -76 4 -12 12 -20 17 -17 16 11 10 -43 -8 -60 -25 -26 -55 -34 -132 -36 -39 -1 -71 -4 -71 -6 0 -2 7 -17 15 -33 34 -66 117 -100 247 -100 74 0 123 -20 146 -60 9 -16 20 -30 25 -30 4 0 7 -12 7 -26 0 -57 -91 -114 -182 -114 -90 0 -10 -77 113 -109 130 -33 169 -56 202 -120 15 -30 32 -58 37 -61 15 -10 -4 -56 -29 -69 -11 -6 -30 -11 -43 -11 -27 0 -71 27 -63 40 3 4 -2 13 -10 20 -9 7 -15 8 -15 2 0 -5 -9 -8 -20 -5 -28 7 -70 -5 -70 -21 0 -29 62 -134 102 -173 24 -23 77 -59 118 -81 50 -25 83 -50 97 -73 13 -19 27 -39 33 -46 18 -22 5 -76 -24 -95 -23 -16 -56 -8 -65 15 -9 21 -42 56 -70 72 -10 6 -12 4 -7 -4 6 -9 0 -10 -21 -5 -38 9 -35 9 -61 0 -27 -9 -23 -32 19 -119 41 -84 92 -141 154 -173 43 -23 56 -35 61 -59 3 -16 13 -38 21 -47 17 -19 5 -51 -23 -62 -16 -6 -91 24 -83 34 2 3 -11 27 -30 53 l-33 48 -19 -25 c-10 -13 -19 -34 -19 -45 0 -12 -4 -21 -10 -21 -14 0 -12 -39 5 -97 17 -56 69 -139 128 -202 58 -62 49 -134 -18 -147 -36 -6 -91 18 -80 35 2 5 -2 14 -10 21 -8 7 -17 28 -21 49 -4 20 -11 45 -17 55 -8 17 -11 15 -23 -20 -8 -21 -17 -67 -21 -101 -3 -34 -10 -60 -14 -57 -16 9 -9 -50 10 -91 10 -22 48 -71 85 -110 71 -76 71 -73 33 -153 -20 -44 -54 -67 -82 -56 -8 4 -14 11 -13 18 1 6 -5 25 -14 42 -9 17 -22 61 -28 97 -7 37 -16 69 -20 72 -13 8 -59 -94 -66 -148 -5 -34 -10 -45 -16 -35 -6 8 -8 -4 -4 -35 7 -56 58 -185 86 -215 11 -12 20 -30 20 -42 0 -21 -60 -94 -91 -110 -21 -12 -49 -3 -49 15 0 8 -10 30 -22 50 -15 26 -22 57 -24 103 -1 37 -3 71 -3 77 -1 5 -19 -10 -41 -34 -43 -47 -60 -92 -60 -159 0 -23 -5 -51 -12 -62 -16 -25 13 -187 37 -204 12 -9 14 -17 7 -36 -16 -40 -46 -62 -83 -58 -27 2 -34 9 -45 38 -7 19 -13 72 -13 117 -1 45 -5 85 -11 88 -5 3 -10 1 -10 -5 0 -5 -16 -18 -35 -27 -44 -21 -78 -87 -100 -191 -17 -81 -20 -146 -6 -138 5 3 11 -17 15 -45 9 -64 -14 -107 -66 -127 -40 -16 -90 -9 -87 11 1 7 -1 20 -5 29 -5 11 5 39 28 81 36 63 45 110 26 122 -5 3 -10 2 -10 -4 0 -5 -28 -25 -63 -44 -76 -43 -89 -57 -122 -129 -19 -41 -28 -84 -34 -154 -10 -115 -25 -137 -95 -132 -38 3 -41 6 -49 40 -8 32 -4 48 22 104 32 69 38 94 21 94 -5 0 -10 -4 -10 -9 0 -5 -15 -12 -32 -16 -90 -19 -163 -96 -194 -204 -41 -143 -64 -177 -115 -169 -37 5 -37 58 0 123 38 68 41 119 5 86 -5 -5 -34 -17 -64 -26 -48 -16 -71 -34 -179 -143 -77 -77 -140 -132 -165 -143 -43 -18 -86 -25 -356 -61 -241 -31 -252 -31 -353 -14 -50 8 -139 20 -197 26 -58 6 -136 15 -175 21 -72 12 -147 42 -142 58 4 16 -235 253 -249 247 -8 -3 -32 1 -55 9 -47 17 -68 18 -87 6 -11 -6 -7 -21 17 -70 17 -33 36 -61 41 -61 6 0 10 -9 10 -20 0 -36 -76 -56 -86 -22 -3 9 -12 28 -19 42 -7 14 -21 56 -29 93 -9 37 -23 82 -32 99 -24 47 -96 121 -104 107 -6 -8 -13 -8 -29 1 -23 12 -96 18 -106 8 -8 -7 46 -121 62 -131 38 -24 -9 -77 -67 -77 -50 0 -59 18 -70 145 -4 51 -17 115 -29 147 -25 65 -72 121 -94 113 -8 -4 -31 4 -51 16 -40 24 -86 20 -86 -8 0 -8 13 -38 30 -65 17 -26 30 -53 30 -58 0 -6 5 -10 10 -10 20 0 9 -40 -16 -56 -20 -14 -33 -15 -62 -8 -22 5 -37 15 -37 24 -1 8 -9 28 -19 43 -17 26 -18 36 -7 141 9 97 9 120 -5 167 -27 92 -73 165 -88 141 -3 -5 -17 -7 -31 -4 l-25 4 0 -78 c0 -101 -22 -144 -74 -144 -30 0 -52 13 -55 32 -1 4 -4 15 -7 23 -7 18 -1 79 16 160 25 123 4 269 -45 319 -27 27 -50 -6 -51 -73 -1 -94 -58 -174 -109 -154 -9 3 -14 11 -11 19 3 7 -1 17 -8 23 -8 7 -26 29 -40 50 l-27 39 35 68 c73 146 84 242 37 339 l-29 60 -16 -37 c-9 -21 -16 -50 -16 -65 0 -15 -9 -47 -19 -70 -32 -69 -92 -92 -104 -40 -3 12 -15 45 -27 73 l-23 52 58 68 c77 92 95 132 94 219 -1 72 -18 150 -33 150 -5 0 -17 -24 -26 -53 -20 -60 -39 -85 -81 -102 -35 -15 -83 -5 -75 15 3 8 1 17 -4 20 -6 4 -10 25 -10 47 0 34 8 50 46 97 64 77 105 167 111 245 4 38 1 71 -6 85 -12 21 -13 20 -56 -32 -28 -34 -59 -60 -84 -71 -61 -24 -71 -15 -65 56 6 73 6 73 53 98 87 44 167 145 197 247 17 59 9 98 -15 69 -8 -9 -21 -16 -31 -16 -10 0 -43 -20 -73 -45 -71 -58 -98 -59 -115 -5 -6 22 -12 51 -12 64 0 39 45 83 132 127 87 46 134 94 180 182 27 51 37 107 19 107 -6 0 -13 -4 -16 -10 -3 -5 -13 -10 -20 -10 -8 0 -36 -13 -62 -30 -65 -42 -117 -40 -122 5 -9 81 14 144 63 174 17 11 70 29 117 41 135 34 205 85 185 136 -7 18 -8 18 -17 2 -6 -11 -22 -18 -37 -18 -31 0 -118 37 -109 47 4 3 -3 17 -13 31 -29 36 -26 87 6 117 27 25 48 30 188 40 44 3 91 13 107 20 35 19 99 93 99 117 0 19 -15 24 -25 8 -7 -11 -96 -12 -134 -1 -24 6 -28 15 -38 78 -5 29 1 39 54 94 l59 61 79 -17 c44 -9 107 -18 140 -21 54 -5 65 -2 112 26 35 20 55 39 59 56 7 29 -11 57 -24 37 -6 -10 -24 -10 -77 -2 -65 10 -102 25 -91 37 3 2 1 13 -4 23 -20 37 33 108 122 165 35 22 38 23 69 7 54 -27 166 -29 248 -4 38 12 73 25 76 30 3 5 -2 17 -11 26 -10 10 -19 12 -23 7 -8 -13 -96 29 -96 45 0 7 -6 18 -12 25 -7 6 -13 20 -13 30 0 27 47 34 101 15 128 -46 275 9 428 161 47 47 107 98 133 114 45 28 59 50 39 62 -4 3 -11 3 -14 0z" fill="#803d3b"/>
<path d="M1451 5424 c0 -11 3 -14 6 -6 3 7 2 16 -1 19 -3 4 -6 -2 -5 -13z" fill="#803d3b"/>
<path d="M3030 5433 c-67 -7 -77 -12 -93 -50 -9 -21 -29 -69 -45 -108 -16 -38 -46 -110 -67 -160 -35 -83 -60 -125 -68 -114 -2 2 -29 43 -60 90 -61 93 -116 149 -147 149 -25 0 -27 -5 -39 -79 -6 -35 -16 -73 -24 -85 -7 -11 -29 -59 -47 -106 -19 -47 -37 -87 -42 -88 -4 -2 -6 -7 -3 -12 3 -4 -1 -23 -9 -41 -7 -19 -16 -42 -19 -51 -5 -16 -13 -15 -89 11 -46 16 -161 63 -256 105 l-174 77 -46 -38 c-139 -112 -275 -264 -385 -429 -76 -115 -162 -273 -153 -281 8 -8 6 -11 58 87 120 230 320 478 483 601 l55 41 72 -30 c40 -17 123 -53 183 -80 61 -27 140 -59 176 -71 l66 -22 -18 -77 c-10 -42 -18 -87 -19 -99 0 -25 3 -23 -205 -108 -71 -29 -182 -74 -245 -100 -63 -26 -236 -96 -385 -157 -148 -60 -275 -114 -281 -119 -34 -28 -123 -379 -143 -561 -13 -112 -15 -278 -3 -278 4 0 5 30 4 66 -9 168 49 486 129 704 20 56 24 61 73 79 28 11 116 46 196 79 529 217 864 352 865 349 0 -1 8 -24 17 -52 l17 -50 -38 -40 c-21 -22 -130 -139 -242 -260 l-204 -220 -85 -7 c-47 -3 -184 -7 -306 -8 -251 -3 -245 -1 -288 -85 -33 -65 -84 -200 -92 -243 -5 -28 -2 -38 22 -63 l28 -29 185 5 c522 13 951 16 969 6 18 -9 19 -28 26 -296 4 -157 10 -297 12 -311 9 -47 -5 -65 -75 -96 -36 -16 -75 -33 -86 -38 -11 -5 -36 -15 -55 -23 -19 -8 -51 -29 -70 -46 -19 -18 -46 -38 -60 -46 -53 -30 -155 -154 -197 -239 -41 -85 -80 -189 -87 -233 -5 -35 -3 -45 15 -61 19 -19 36 -19 362 -16 188 2 630 9 983 15 701 13 653 15 727 -44 25 -19 40 -22 125 -22 l96 0 31 -43 30 -42 180 7 c200 7 201 7 251 80 41 62 61 71 152 76 93 5 116 18 207 122 l56 64 0 113 c0 62 -2 206 -4 320 -5 262 0 253 -135 244 -71 -4 -103 -11 -134 -28 l-40 -23 -23 27 c-21 25 -31 28 -97 29 -72 2 -138 -7 -148 -20 -3 -4 -26 -24 -52 -45 -82 -66 -87 -79 -78 -241 7 -127 6 -142 -10 -159 -28 -29 -63 -14 -112 52 -79 105 -186 138 -284 86 -27 -14 -59 -31 -70 -37 -12 -6 -27 -25 -33 -42 -6 -18 -22 -42 -36 -55 -24 -23 -25 -23 -45 -5 -11 10 -20 25 -20 34 0 9 -7 27 -16 39 -19 27 -87 30 -123 6 -22 -16 -26 -15 -67 5 -47 24 -92 22 -115 -5 -15 -18 -48 -18 -68 0 -40 34 -141 21 -141 -20 0 -8 -9 -23 -20 -34 -17 -17 -33 -20 -104 -20 -55 0 -87 4 -93 13 -13 16 -23 264 -24 636 -2 269 0 295 16 307 13 9 79 13 254 13 433 1 734 12 758 27 12 8 40 45 62 83 23 38 52 82 65 98 50 60 55 81 49 204 -7 146 -9 149 -117 149 -77 0 -84 -2 -136 -37 -30 -20 -73 -51 -95 -69 -38 -30 -55 -38 -82 -35 -8 1 -12 60 -15 204 -2 143 -7 208 -15 219 -7 8 -44 27 -82 43 l-70 28 -37 -22 c-35 -21 -39 -21 -76 -7 -53 22 -61 19 -15 -5 21 -11 35 -23 33 -28 -3 -4 -24 -21 -48 -36 -93 -62 -98 -70 -98 -156 0 -93 -6 -99 -94 -92 l-61 5 -32 -55 c-18 -30 -33 -59 -33 -65 0 -37 -124 -68 -150 -37 -8 10 -14 77 -17 197 -3 101 -9 190 -14 199 -6 13 -2 21 16 33 35 23 73 94 82 153 l8 50 179 -74 c98 -40 180 -72 183 -70 2 3 -15 12 -38 21 -23 9 -106 44 -184 77 l-143 60 -16 87 c-20 106 -20 112 -1 112 25 0 991 366 1211 459 16 7 38 0 94 -30 41 -21 75 -37 77 -35 2 2 -33 23 -79 46 l-84 43 -64 -26 c-36 -14 -167 -66 -291 -116 -125 -49 -307 -120 -405 -156 -99 -37 -240 -89 -314 -117 -74 -28 -140 -53 -146 -55 -6 -2 -19 17 -29 43 -15 40 -16 49 -4 52 8 3 120 109 249 236 129 127 257 252 284 277 l48 46 87 -14 c98 -16 271 -60 380 -97 94 -33 105 -27 14 6 -147 55 -459 128 -492 116 -5 -1 -134 -124 -286 -273 -153 -148 -283 -271 -290 -273 -7 -2 -24 20 -39 48 -26 50 -26 51 -8 78 10 15 52 108 92 207 40 99 78 186 85 192 12 15 204 32 278 25 30 -2 47 0 47 7 0 11 -171 13 -260 4z m-546 -1113 c6 0 17 -4 25 -9 17 -11 23 -3 -91 -105 l-78 -68 0 -67 c0 -52 -6 -79 -26 -119 l-25 -51 -195 -3 c-107 -2 -194 -1 -194 2 0 5 63 73 353 382 l119 128 50 -45 c28 -25 55 -45 62 -45z m1026 -50 c12 -8 16 -50 20 -242 6 -222 5 -234 -14 -255 -24 -28 -37 -29 -66 -5 -21 17 -22 26 -27 250 -4 176 -2 236 7 247 14 17 57 20 80 5z m-802 -23 c11 -13 14 -97 33 -1162 7 -386 15 -625 21 -632 8 -9 52 -13 157 -13 156 0 191 9 191 50 0 11 11 27 24 35 32 21 62 6 82 -41 9 -21 21 -34 32 -34 22 0 42 19 42 40 0 9 9 25 20 35 29 26 65 13 87 -32 24 -49 40 -52 58 -11 30 72 77 77 111 13 20 -39 21 -40 80 -42 81 -2 91 3 115 48 27 55 98 99 158 99 56 0 121 -37 151 -85 36 -58 47 -65 105 -65 56 0 75 -14 75 -56 0 -38 -30 -54 -98 -54 -59 0 -71 -4 -118 -36 -92 -64 -175 -55 -257 28 l-40 40 -126 -6 c-69 -3 -318 -8 -553 -12 -321 -5 -431 -4 -442 5 -11 9 -15 89 -20 439 -4 235 -11 652 -17 926 -11 569 -15 536 71 536 26 0 52 -6 58 -13z m1263 -295 c0 -4 2 -40 3 -80 3 -96 -5 -104 -125 -110 -76 -4 -93 -2 -109 13 -23 20 -26 45 -8 63 7 7 39 12 72 12 69 0 96 17 96 63 0 41 26 70 51 56 11 -5 19 -13 20 -17z m-783 -4 c8 -8 12 -45 12 -100 0 -74 -3 -89 -18 -97 -10 -5 -82 -11 -160 -12 -125 -2 -145 0 -162 16 -25 22 -25 26 0 53 19 20 31 22 121 22 124 0 139 7 139 63 0 45 13 67 40 67 9 0 21 -5 28 -12z m-847 -20 c-4 -12 -13 -24 -20 -26 -9 -3 -9 2 0 22 15 32 32 35 20 4z m169 -138 c27 -14 25 -38 -2 -50 -14 -6 -253 -14 -583 -18 -583 -9 -605 -7 -605 32 0 33 27 36 461 45 473 10 699 7 729 -9z m2028 -908 c9 -12 12 -86 12 -293 0 -152 3 -290 6 -307 5 -22 1 -35 -15 -51 -19 -19 -32 -21 -144 -21 -108 0 -126 2 -141 19 -17 19 -13 51 7 51 6 0 25 -5 43 -12 41 -14 83 2 121 46 l26 31 -7 267 -7 266 23 16 c25 18 56 13 76 -12z m294 -9 c21 -24 37 -536 18 -559 -15 -17 -84 -19 -98 -1 -17 20 -19 542 -2 562 17 20 63 19 82 -2z m-2493 -234 c14 -42 15 -276 0 -284 -5 -4 -72 -9 -148 -10 -183 -5 -187 -3 -137 92 40 77 97 136 185 195 69 46 86 47 100 7z" fill="#803d3b"/>
<path d="M3861 2485 c-17 -20 -31 -40 -31 -45 0 -15 67 -80 83 -80 29 0 64 21 81 51 15 26 15 31 1 58 -31 62 -88 68 -134 16z" fill="#803d3b"/>
<path d="M2212 2517 c-27 -29 -28 -43 -1 -57 31 -17 71 12 67 48 -4 36 -37 40 -66 9z" fill="#803d3b"/>
<path d="M2680 5370 c-141 -36 -320 -99 -320 -112 0 -12 4 -11 120 32 47 18 145 47 219 66 74 19 137 37 140 39 11 12 -53 2 -159 -25z" fill="#803d3b"/>
<path d="M2223 5203 c-29 -14 -44 -33 -28 -33 10 0 85 40 85 45 0 9 -25 4 -57 -12z" fill="#803d3b"/>
<path d="M2019 5087 c-60 -38 -80 -56 -64 -58 3 0 43 23 88 50 47 29 73 51 62 51 -11 0 -50 -20 -86 -43z" fill="#803d3b"/>
<path d="M4289 5113 c13 -10 43 -28 65 -41 23 -13 30 -15 17 -5 -13 10 -43 28 -65 41 -23 13 -30 15 -17 5z" fill="#803d3b"/>
<path d="M4400 5046 c0 -2 8 -10 18 -17 15 -13 16 -12 3 4 -13 16 -21 21 -21 13z" fill="#803d3b"/>
<path d="M3610 4237 c12 -12 421 -179 426 -174 5 4 -12 12 -226 100 -151 63 -210 85 -200 74z" fill="#803d3b"/>
<path d="M4050 4056 c0 -2 57 -27 128 -56 212 -88 265 -110 312 -130 307 -132 800 -324 808 -315 3 3 -1 7 -9 9 -136 48 -392 150 -767 305 -459 189 -472 194 -472 187z" fill="#803d3b"/>
<path d="M5421 3774 c0 -11 3 -14 6 -6 3 7 2 16 -1 19 -3 4 -6 -2 -5 -13z" fill="#803d3b"/>
<path d="M5432 3720 c0 -14 2 -19 5 -12 2 6 2 18 0 25 -3 6 -5 1 -5 -13z" fill="#803d3b"/>
<path d="M5442 3655 c0 -16 2 -22 5 -12 2 9 2 23 0 30 -3 6 -5 -1 -5 -18z" fill="#803d3b"/>
<path d="M5453 3580 c0 -25 2 -35 4 -22 2 12 2 32 0 45 -2 12 -4 2 -4 -23z" fill="#803d3b"/>
<path d="M5462 3362 c-3 -212 -33 -425 -83 -597 -230 -790 -870 -1386 -1689 -1574 -243 -56 -585 -72 -810 -37 -58 8 -123 18 -145 21 -89 11 16 -13 132 -31 143 -22 494 -25 618 -5 369 59 625 148 895 311 690 415 1109 1157 1088 1925 l-4 120 -2 -133z" fill="#803d3b"/>
<path d="M1242 3285 l-170 -185 15 -78 c8 -42 17 -79 20 -82 3 -3 3 9 0 26 -3 17 -9 53 -12 80 -6 49 -6 49 47 104 96 98 288 308 288 314 0 20 -36 -14 -188 -179z" fill="#803d3b"/>
<path d="M2148 3465 c-3 -6 -47 -111 -98 -235 -151 -365 -408 -987 -452 -1093 -22 -54 -38 -101 -34 -104 3 -4 7 -4 9 -2 2 2 52 123 111 269 135 328 231 561 256 620 80 184 220 535 217 544 -2 6 -6 6 -9 1z" fill="#803d3b"/>
<path d="M2015 2978 c-55 -30 -69 -81 -32 -123 33 -39 79 -37 122 5 l34 33 22 -27 c44 -56 104 -54 135 5 15 30 15 35 0 66 -29 61 -98 66 -137 11 l-21 -30 -32 30 c-38 36 -64 45 -91 30z" fill="#803d3b"/>
<path d="M1112 2915 c0 -11 3 -29 8 -40 11 -25 11 1 0 35 -6 20 -8 21 -8 5z" fill="#803d3b"/>
<path d="M3311 2854 c-19 -16 -31 -35 -31 -50 0 -35 42 -74 79 -74 29 0 30 -1 20 -27 -21 -55 33 -112 88 -92 31 11 56 53 48 79 -10 30 -64 61 -94 53 -21 -5 -23 -3 -16 13 21 49 17 70 -15 97 -39 33 -41 33 -79 1z" fill="#803d3b"/>
<path d="M1132 2840 c0 -8 6 -31 13 -50 7 -19 13 -28 13 -20 0 8 -6 31 -13 50 -7 19 -13 28 -13 20z" fill="#803d3b"/>
<path d="M3202 2717 c-30 -32 -28 -71 5 -97 67 -53 152 40 90 98 -30 28 -68 28 -95 -1z" fill="#803d3b"/>
<path d="M4950 2376 c0 -2 8 -10 18 -17 15 -13 16 -12 3 4 -13 16 -21 21 -21 13z" fill="#803d3b"/>
<path d="M2246 1706 c7 -18 -25 -126 -37 -126 -21 0 -6 -19 23 -29 24 -9 30 -9 21 0 -13 13 19 138 38 149 7 5 5 9 -6 14 -27 10 -45 7 -39 -8z" fill="#803d3b"/>
<path d="M4011 1713 c-14 -3 -20 -8 -13 -12 8 -5 6 -30 -7 -87 -10 -45 -21 -87 -25 -93 -4 -6 -4 -11 -1 -11 5 0 104 40 111 44 1 1 4 15 8 31 l7 30 -25 -31 c-31 -38 -70 -53 -61 -23 3 10 8 28 11 39 6 22 34 28 35 8 1 -18 17 23 18 45 1 17 0 17 -15 3 -23 -24 -31 -19 -26 14 5 36 39 51 58 26 10 -15 12 -15 17 4 4 18 1 20 -31 19 -21 -1 -48 -4 -61 -6z" fill="#803d3b"/>
<path d="M2319 1697 c11 -14 -7 -100 -30 -141 -8 -14 -7 -21 3 -27 19 -12 30 -11 22 2 -4 6 -1 36 6 66 15 61 19 57 45 -40 9 -37 19 -66 22 -64 2 2 14 42 27 88 13 46 27 92 31 102 5 13 2 17 -15 17 -12 0 -18 -4 -15 -10 8 -12 -15 -120 -25 -120 -4 0 -10 14 -14 32 -17 87 -27 108 -48 108 -16 0 -18 -3 -9 -13z" fill="#803d3b"/>
<path d="M3892 1697 c-25 -31 -24 -58 3 -97 32 -46 32 -95 0 -95 -12 0 -21 9 -25 25 l-6 25 -7 -25 c-10 -38 -8 -60 6 -56 6 3 24 7 38 10 26 6 49 41 49 77 0 11 -12 36 -26 54 -29 38 -29 70 1 70 12 0 21 -9 25 -25 l6 -25 7 25 c4 14 7 30 7 35 0 15 -66 17 -78 2z" fill="#803d3b"/>
<path d="M2476 1675 c7 -27 -30 -175 -46 -185 -7 -5 0 -12 20 -18 29 -11 31 -10 25 8 -9 27 13 90 31 90 13 0 18 -12 15 -32 0 -5 4 -8 9 -8 6 0 10 8 10 18 0 9 3 28 6 42 6 21 4 23 -7 13 -7 -7 -21 -13 -31 -13 -9 0 -16 6 -14 13 3 6 7 25 11 40 5 24 10 28 32 25 19 -2 29 -10 34 -28 6 -26 9 -23 24 25 4 14 -10 18 -92 28 -29 3 -32 1 -27 -18z" fill="#803d3b"/>
<path d="M3817 1693 c-4 -3 -2 -12 3 -18 16 -19 -15 -174 -39 -199 -20 -19 -22 -19 -38 -3 -15 15 -16 25 -4 104 7 48 17 91 24 95 20 12 0 20 -34 13 -21 -5 -27 -10 -19 -15 10 -6 11 -25 2 -90 -13 -105 -3 -140 39 -140 41 0 64 42 79 143 7 45 19 90 28 100 14 16 13 17 -10 17 -13 0 -28 -3 -31 -7z" fill="#803d3b"/>
<path d="M2628 1561 c-50 -92 -62 -121 -51 -126 26 -9 30 -6 25 23 -4 32 19 58 43 48 19 -7 19 -45 0 -66 -14 -16 -11 -18 41 -29 73 -14 79 -14 66 2 -7 8 -5 38 5 97 8 47 16 86 17 88 2 1 11 -39 21 -90 20 -112 25 -131 32 -125 2 3 15 63 28 133 13 71 29 130 34 132 21 7 11 22 -15 22 -21 0 -25 -4 -20 -17 8 -19 -12 -153 -24 -166 -4 -5 -10 16 -14 45 -4 29 -12 72 -18 96 -9 35 -14 42 -35 42 -21 0 -23 -2 -10 -14 12 -13 12 -28 -5 -113 -22 -119 -24 -123 -42 -123 -24 0 -26 12 -15 135 5 64 8 119 6 122 -2 2 -34 -50 -69 -116z m36 1 c-4 -18 -12 -32 -19 -32 -9 0 -9 9 3 35 19 41 24 40 16 -3z" fill="#803d3b"/>
<path d="M3583 1665 c-46 -32 -76 -166 -50 -228 41 -98 147 12 147 153 0 77 -44 112 -97 75z m65 -90 c-7 -111 -52 -184 -85 -139 -29 38 3 200 44 223 34 18 46 -7 41 -84z" fill="#803d3b"/>
<path d="M3386 1663 c-13 -3 -15 -7 -7 -12 9 -6 8 -35 -5 -122 -9 -63 -21 -122 -26 -132 -12 -24 -6 -29 23 -22 22 5 24 11 21 51 -6 74 3 94 42 94 l34 0 -10 -47 c-5 -27 -13 -56 -18 -65 -14 -25 -13 -25 20 -20 16 2 27 8 24 14 -10 15 17 221 32 246 14 21 13 22 -22 22 -31 0 -35 -2 -24 -15 15 -18 4 -105 -13 -105 -7 0 -22 -3 -35 -6 -22 -6 -22 -5 -16 37 3 24 13 54 20 67 13 20 13 22 -3 21 -10 -1 -27 -4 -37 -6z" fill="#803d3b"/>
<path d="M2906 1644 c-3 -9 -6 -25 -5 -37 0 -19 2 -18 11 6 9 24 38 39 38 19 0 -30 -42 -227 -50 -237 -8 -10 -3 -14 22 -18 37 -5 49 0 28 13 -13 8 -6 74 26 228 7 35 34 27 35 -10 1 -31 1 -32 9 -8 18 56 15 60 -49 60 -44 0 -60 -4 -65 -16z" fill="#803d3b"/>
<path d="M3047 1635 c7 -36 -28 -227 -45 -247 -14 -17 -12 -18 23 -18 27 0 36 3 29 10 -7 7 -8 28 -3 58 4 26 8 53 8 60 2 33 20 -4 31 -63 11 -59 15 -65 37 -65 21 0 23 2 10 15 -8 7 -18 35 -21 60 -6 36 -3 55 14 91 35 72 14 124 -50 124 -34 0 -37 -2 -33 -25z m61 -7 c15 -15 15 -40 0 -73 -13 -29 -38 -34 -38 -7 0 33 13 92 19 92 4 0 12 -5 19 -12z" fill="#803d3b"/>
<path d="M3185 1643 c30 -76 29 -227 -1 -258 -14 -13 -11 -15 22 -15 28 0 34 3 26 13 -21 25 30 215 70 265 8 9 2 12 -23 12 -23 0 -30 -3 -20 -9 11 -7 11 -15 1 -47 -7 -22 -16 -43 -20 -47 -13 -14 -22 74 -9 89 9 11 6 14 -21 14 -27 0 -31 -3 -25 -17z" fill="#803d3b"/>
<path d="M2187 1349 c7 -7 15 -10 18 -7 3 3 -2 9 -12 12 -14 6 -15 5 -6 -5z" fill="#803d3b"/>
<path d="M2260 1315 c14 -8 30 -14 35 -14 6 0 -1 6 -15 14 -14 8 -29 14 -35 14 -5 0 1 -6 15 -14z" fill="#803d3b"/>
<path d="M2416 1255 c17 -7 44 -16 60 -20 25 -4 24 -3 -6 8 -19 8 -46 17 -60 20 -19 5 -17 3 6 -8z" fill="#803d3b"/>
<path d="M2562 1210 c31 -11 74 -21 95 -25 21 -3 0 6 -47 19 -99 29 -131 33 -48 6z" fill="#803d3b"/>
</g>
</svg>